<svg width="106" height="39" viewBox="0 0 106 39" fill="none" xmlns="http://www.w3.org/2000/svg">
<path fill-rule="evenodd" clip-rule="evenodd" d="M13.5772 1.72698C6.6804 10.0051 0.0628038 20.2814 -2.13664e-05 27.953C-0.0701329 29.3289 0.166822 30.7031 0.692902 31.9716C1.21898 33.2402 2.02041 34.3697 3.03653 35.2748C5.78612 37.7459 9.33733 39.0815 12.9978 39.0214C17.982 39.0214 22.9381 36.9733 26.8124 35.389C33.3462 32.72 105.546 0.663673 105.546 0.663673C106.244 0.306857 106.112 -0.135593 105.239 0.0856332L26.6239 21.8229C25.1432 22.2547 23.6123 22.4804 22.0726 22.4937C16.0553 22.5294 10.7082 19.1182 10.7501 11.9248C10.7501 9.11308 11.6087 5.71618 13.5423 1.72698H13.5772Z" fill="#231F20"/>
</svg>
